<svg width="24" height="24" viewBox="0 0 24 24" fill="none" xmlns="http://www.w3.org/2000/svg">
<g id="chat">
<path id="Path" d="M15.9549 7.27147C20.3371 7.20453 23.9139 10.6536 23.9987 15.0356C24.0112 15.6789 23.9469 16.3051 23.8144 16.9058C23.59 17.9228 23.4567 18.9578 23.4567 19.9993V22.0125C23.4567 22.3209 23.2067 22.571 22.8982 22.571H20.885C19.8435 22.571 18.8086 22.7043 17.7915 22.9287C17.1909 23.0611 16.5647 23.1254 15.9213 23.113C11.5395 23.0282 8.09036 19.4515 8.15721 15.0694C8.22241 10.792 11.6776 7.33681 15.9549 7.27147Z" fill="url(#paint0_linear_315_7507)"/>
<path id="Path_2" fill-rule="evenodd" clip-rule="evenodd" d="M15.9549 7.27147C20.3371 7.20453 23.9139 10.6536 23.9987 15.0356C24.0112 15.6789 23.9469 16.3051 23.8144 16.9058C23.59 17.9228 23.4567 18.9578 23.4567 19.9993V22.0125C23.4567 22.3209 23.2067 22.571 22.8982 22.571H20.885C19.8435 22.571 18.8086 22.7043 17.7915 22.9287C17.1909 23.0611 16.5647 23.1254 15.9213 23.113C11.5395 23.0282 8.09036 19.4515 8.15721 15.0694C8.22241 10.792 11.6776 7.33681 15.9549 7.27147Z" fill="url(#paint1_linear_315_7507)"/>
<path id="Path_3" fill-rule="evenodd" clip-rule="evenodd" d="M9.80149 0.0421831C4.4627 -0.0393794 0.105251 4.16254 0.00184497 9.50095C-0.0132957 10.2847 0.0650325 11.0476 0.22647 11.7794C0.499751 13.0184 0.66222 14.2792 0.66222 15.5481V18.0007C0.66222 18.3764 0.966814 18.6811 1.34261 18.6811H3.7952C5.06402 18.6811 6.32491 18.8436 7.56395 19.1168C8.29567 19.2782 9.05861 19.3566 9.84231 19.3414C15.1806 19.2381 19.3825 14.8807 19.3012 9.54206C19.2217 4.3311 15.0124 0.12173 9.80149 0.0421831Z" fill="url(#paint2_linear_315_7507)"/>
<path id="Path_4" fill-rule="evenodd" clip-rule="evenodd" d="M6.19693 9.17473C5.9243 8.88505 5.53843 8.70312 5.10915 8.70312C4.28354 8.70312 3.61426 9.37241 3.61426 10.198C3.61426 10.6272 3.79613 11.0131 4.08587 11.2858L7.31059 14.5105C7.58326 14.8002 7.96913 14.9821 8.39837 14.9821C9.22398 14.9821 9.89326 14.3128 9.89326 13.4872C9.89326 13.058 9.71134 12.6721 9.42165 12.3995L6.19693 9.17473Z" fill="#0C53B7"/>
<path id="Path_5" fill-rule="evenodd" clip-rule="evenodd" d="M10.4245 9.17473C10.1518 8.88505 9.76597 8.70312 9.33669 8.70312C8.51108 8.70312 7.8418 9.37241 7.8418 10.198C7.8418 10.6272 8.02367 11.0131 8.31341 11.2858L11.5381 14.5105C11.8108 14.8002 12.1967 14.9821 12.6259 14.9821C13.4515 14.9821 14.1208 14.3128 14.1208 13.4872C14.1208 13.058 13.9389 12.6721 13.6492 12.3995L10.4245 9.17473Z" fill="#0C53B7"/>
<path id="Path_6" fill-rule="evenodd" clip-rule="evenodd" d="M14.652 9.17473C14.3794 8.88505 13.9935 8.70312 13.5642 8.70312C12.7386 8.70312 12.0693 9.37241 12.0693 10.198C12.0693 10.6272 12.2513 11.0131 12.5409 11.2858L15.7657 14.5105C16.0383 14.8002 16.4242 14.9821 16.8534 14.9821C17.6791 14.9821 18.3483 14.3128 18.3483 13.4872C18.3483 13.058 18.1664 12.6721 17.8767 12.3995L14.652 9.17473Z" fill="#0C53B7"/>
<circle id="Oval" cx="5.10915" cy="10.198" r="1.49489" fill="white"/>
<circle id="Oval_2" cx="9.33669" cy="10.198" r="1.49489" fill="white"/>
<circle id="Oval_3" cx="13.5642" cy="10.198" r="1.49489" fill="white"/>
</g>
<defs>
<linearGradient id="paint0_linear_315_7507" x1="8.66367" y1="19.4092" x2="20.2945" y2="31.0401" gradientUnits="userSpaceOnUse">
<stop stop-color="#A7F3CE"/>
<stop offset="1" stop-color="#61DB99"/>
</linearGradient>
<linearGradient id="paint1_linear_315_7507" x1="0.234261" y1="15.1925" x2="16.0782" y2="31.0365" gradientUnits="userSpaceOnUse">
<stop stop-color="#5BE584"/>
<stop offset="1" stop-color="#00AB55"/>
</linearGradient>
<linearGradient id="paint2_linear_315_7507" x1="-9.65117" y1="9.69214" x2="9.65109" y2="28.9945" gradientUnits="userSpaceOnUse">
<stop stop-color="#74CAFF"/>
<stop offset="1" stop-color="#0C53B7"/>
</linearGradient>
</defs>
</svg>
