<svg width="24" height="24" viewBox="0 0 24 24" fill="none" xmlns="http://www.w3.org/2000/svg">
<g id="icons/ic_close">
<path id="shape" d="M13.4032 11.9942L17.6976 7.70978C18.0892 7.31817 18.0892 6.68324 17.6976 6.29163C17.306 5.90002 16.671 5.90002 16.2794 6.29163L11.995 10.586L7.71063 6.29163C7.31902 5.90002 6.68409 5.90002 6.29248 6.29163C5.90087 6.68324 5.90087 7.31817 6.29248 7.70978L10.5869 11.9942L6.29248 16.2786C6.10342 16.4661 5.99707 16.7214 5.99707 16.9876C5.99707 17.2539 6.10342 17.5092 6.29248 17.6967C6.48 17.8858 6.73527 17.9921 7.00155 17.9921C7.26784 17.9921 7.52311 17.8858 7.71063 17.6967L11.995 13.4023L16.2794 17.6967C16.4669 17.8858 16.7222 17.9921 16.9885 17.9921C17.2548 17.9921 17.51 17.8858 17.6976 17.6967C17.8866 17.5092 17.993 17.2539 17.993 16.9876C17.993 16.7214 17.8866 16.4661 17.6976 16.2786L13.4032 11.9942Z" fill="#FF5630"/>
</g>
</svg>
