<svg width="26" height="26" viewBox="0 0 26 26" fill="none" xmlns="http://www.w3.org/2000/svg">
<g id="icons/ic_edit">
<path id="shape" fill-rule="evenodd" clip-rule="evenodd" d="M17.8354 5.2914L20.6896 8.14557C21.4875 8.90574 21.5201 10.1681 20.7625 10.9685L11.3875 20.3435C11.048 20.6802 10.6029 20.8898 10.1271 20.9372L5.78335 21.3331H5.6896C5.41273 21.3347 5.1466 21.226 4.95002 21.031C4.73027 20.812 4.61953 20.5065 4.64794 20.1976L5.09585 15.8539C5.14325 15.3781 5.3529 14.933 5.6896 14.5935L15.0646 5.21848C15.8728 4.53572 17.0643 4.56708 17.8354 5.2914ZM14.3563 8.83307L17.1479 11.6247L19.2313 9.59348L16.3875 6.74973L14.3563 8.83307Z" fill="#212B36"/>
</g>
</svg>
