<svg width="20" height="20" viewBox="0 0 20 20" fill="none" xmlns="http://www.w3.org/2000/svg">
<g id="icons/ic_eye">
<g id="shape">
<path d="M11.2497 10.001C11.2497 10.6913 10.6901 11.251 9.99973 11.251C9.30938 11.251 8.74973 10.6913 8.74973 10.001C8.74973 9.3106 9.30938 8.75095 9.99973 8.75095C10.6901 8.75095 11.2497 9.3106 11.2497 10.001Z" fill="#637381"/>
<path fill-rule="evenodd" clip-rule="evenodd" d="M9.77473 4.16762C14.7581 4.01762 17.6914 8.65928 18.2247 9.58428C18.3736 9.84212 18.3736 10.1598 18.2247 10.4176C17.5081 11.6676 14.8331 15.7176 10.2247 15.8343H10.0164C5.10806 15.8343 2.29973 11.326 1.77473 10.4176C1.62587 10.1598 1.62587 9.84212 1.77473 9.58428C2.49973 8.33428 5.1664 4.28428 9.77473 4.16762ZM7.08307 10.001C7.08307 11.6118 8.3889 12.9176 9.99973 12.9176C11.6106 12.9176 12.9164 11.6118 12.9164 10.001C12.9164 8.39012 11.6106 7.08428 9.99973 7.08428C8.3889 7.08428 7.08307 8.39012 7.08307 10.001Z" fill="#637381"/>
</g>
</g>
</svg>
