<svg width="20" height="21" viewBox="0 0 20 21" fill="none" xmlns="http://www.w3.org/2000/svg">
<g id="fluent:vehicle-truck-cube-20-regular">
<path id="Vector" d="M1.5 8.38163V4.61763C1.5001 4.43197 1.55188 4.25 1.64955 4.0921C1.74722 3.93421 1.88692 3.80662 2.053 3.72363L5.053 2.22363C5.1918 2.15427 5.34484 2.11816 5.5 2.11816C5.65516 2.11816 5.8082 2.15427 5.947 2.22363L8.947 3.72363C9.11308 3.80662 9.25278 3.93421 9.35045 4.0921C9.44812 4.25 9.4999 4.43197 9.5 4.61763V8.38163C9.50009 8.56746 9.44839 8.74964 9.35071 8.90773C9.25303 9.06582 9.11323 9.19356 8.947 9.27663L5.947 10.7766C5.8082 10.846 5.65516 10.8821 5.5 10.8821C5.34484 10.8821 5.1918 10.846 5.053 10.7766L2.053 9.27663C1.88677 9.19356 1.74697 9.06582 1.64929 8.90773C1.55161 8.74964 1.49991 8.56746 1.5 8.38163ZM2.54 4.80563C2.48845 4.92777 2.48751 5.06538 2.53739 5.1882C2.58727 5.31103 2.68389 5.40902 2.806 5.46063L5 6.38663V8.99963C5 9.13224 5.05268 9.25942 5.14645 9.35318C5.24021 9.44695 5.36739 9.49963 5.5 9.49963C5.63261 9.49963 5.75979 9.44695 5.85355 9.35318C5.94732 9.25942 6 9.13224 6 8.99963V6.38663L8.194 5.46063C8.3134 5.40723 8.40712 5.30917 8.45506 5.18747C8.503 5.06578 8.50135 4.93015 8.45046 4.80966C8.39957 4.68917 8.30349 4.59342 8.18283 4.54294C8.06217 4.49246 7.92653 4.49127 7.805 4.53963L5.5 5.51263L3.194 4.53963C3.07186 4.48808 2.93425 4.48714 2.81143 4.53702C2.6886 4.5869 2.59161 4.68352 2.54 4.80563ZM2.042 14.7496V10.3896L3.042 10.8896V14.7496C3.042 15.1646 3.378 15.4996 3.792 15.4996H4.051C4.16576 14.9345 4.47236 14.4264 4.91887 14.0614C5.36538 13.6965 5.92432 13.4971 6.501 13.4971C7.07768 13.4971 7.63662 13.6965 8.08313 14.0614C8.52963 14.4264 8.83624 14.9345 8.951 15.4996H10.051C10.1835 14.85 10.5686 14.2796 11.1217 13.9139C11.6747 13.5482 12.3504 13.4172 13 13.5496V5.24963C13 5.05072 12.921 4.85995 12.7803 4.7193C12.6397 4.57865 12.4489 4.49963 12.25 4.49963H10.496C10.4749 4.14204 10.3582 3.79668 10.158 3.49963H12.249C13.216 3.49963 13.999 4.28363 13.999 5.24963V6.49963H14.881C15.1597 6.49964 15.4329 6.5773 15.67 6.72391C15.907 6.87051 16.0985 7.08026 16.223 7.32963L17.841 10.5646C17.945 10.7736 18 11.0026 18 11.2356V14.9996C18 15.3975 17.842 15.779 17.5607 16.0603C17.2794 16.3416 16.8978 16.4996 16.5 16.4996H14.95C14.8352 17.0648 14.5286 17.5729 14.0821 17.9378C13.6356 18.3028 13.0767 18.5021 12.5 18.5021C11.9233 18.5021 11.3644 18.3028 10.9179 17.9378C10.4714 17.5729 10.1648 17.0648 10.05 16.4996H8.95C8.83524 17.0648 8.52864 17.5729 8.08213 17.9378C7.63562 18.3028 7.07668 18.5021 6.5 18.5021C5.92332 18.5021 5.36438 18.3028 4.91787 17.9378C4.47136 17.5729 4.16476 17.0648 4.05 16.4996H3.791C3.32687 16.4996 2.88175 16.3153 2.55356 15.9871C2.22537 15.6589 2.041 15.2138 2.041 14.7496H2.042ZM14.95 15.4996H16.5C16.6326 15.4996 16.7598 15.447 16.8536 15.3532C16.9473 15.2594 17 15.1322 17 14.9996V11.4996H14V13.9996C14.48 14.3596 14.827 14.8896 14.95 15.4996ZM16.692 10.4996L15.33 7.77663C15.2886 7.6935 15.2248 7.62355 15.1459 7.57462C15.0669 7.52569 14.9759 7.49973 14.883 7.49963H14V10.4996H16.69H16.692ZM5 15.9996C5 16.3975 5.15804 16.779 5.43934 17.0603C5.72064 17.3416 6.10218 17.4996 6.5 17.4996C6.89782 17.4996 7.27936 17.3416 7.56066 17.0603C7.84196 16.779 8 16.3975 8 15.9996C8 15.6018 7.84196 15.2203 7.56066 14.939C7.27936 14.6577 6.89782 14.4996 6.5 14.4996C6.10218 14.4996 5.72064 14.6577 5.43934 14.939C5.15804 15.2203 5 15.6018 5 15.9996ZM12.5 17.4996C12.8978 17.4996 13.2794 17.3416 13.5607 17.0603C13.842 16.779 14 16.3975 14 15.9996C14 15.6018 13.842 15.2203 13.5607 14.939C13.2794 14.6577 12.8978 14.4996 12.5 14.4996C12.1022 14.4996 11.7206 14.6577 11.4393 14.939C11.158 15.2203 11 15.6018 11 15.9996C11 16.3975 11.158 16.779 11.4393 17.0603C11.7206 17.3416 12.1022 17.4996 12.5 17.4996Z" fill="#1939B7"/>
</g>
</svg>
