<svg width="24" height="24" viewBox="0 0 24 24" fill="none" xmlns="http://www.w3.org/2000/svg">
<g id="icons/ic_notifications">
<path id="shape" fill-rule="evenodd" clip-rule="evenodd" d="M18.7196 13.3997L20.5196 15.2097C20.9819 15.6796 21.1178 16.3807 20.8648 16.9893C20.6117 17.598 20.0188 17.996 19.3596 17.9997H15.9996V18.3397C15.9024 20.4534 14.1136 22.0901 11.9996 21.9997C9.88565 22.0901 8.09688 20.4534 7.99963 18.3397V17.9997H4.63963C3.98046 17.996 3.38757 17.598 3.13451 16.9893C2.88144 16.3807 3.01739 15.6796 3.47963 15.2097L5.27963 13.3997V8.72969C5.28317 6.79086 6.12147 4.94745 7.58035 3.67045C9.03924 2.39345 10.9774 1.80654 12.8996 2.05969C16.2851 2.57858 18.7691 5.51503 18.7196 8.93969V13.3997ZM11.9996 19.9997C13.003 20.0705 13.8844 19.339 13.9996 18.3397V17.9997H9.99963V18.3397C10.1148 19.339 10.9962 20.0705 11.9996 19.9997Z" fill="#637381"/>
</g>
</svg>
