<svg width="24" height="25" viewBox="0 0 24 25" fill="none" xmlns="http://www.w3.org/2000/svg">
<g id="icons/ic_chevron_down">
<path id="shape" d="M15.5013 12.5235C15.5017 12.7572 15.4204 12.9836 15.2713 13.1635L10.2713 19.1635C9.91781 19.5888 9.28653 19.647 8.86128 19.2935C8.43602 18.94 8.37781 18.3088 8.73128 17.8835L13.2113 12.5235L8.89128 7.16351C8.7235 6.95691 8.64501 6.69196 8.67316 6.42732C8.70131 6.16268 8.8338 5.92018 9.04128 5.75351C9.24913 5.56837 9.52475 5.47825 9.80183 5.50482C10.0789 5.53139 10.3324 5.67224 10.5013 5.89351L15.3313 11.8935C15.4568 12.0786 15.5166 12.3004 15.5013 12.5235Z" fill="#637381"/>
</g>
</svg>
