<svg width="20" height="20" viewBox="0 0 20 20" fill="none" xmlns="http://www.w3.org/2000/svg">
<g id="fluent:vehicle-truck-cube-20-regular">
<path id="Vector" d="M1.5 7.88212V4.11812C1.5001 3.93246 1.55188 3.75049 1.64955 3.59259C1.74722 3.4347 1.88692 3.30711 2.053 3.22412L5.053 1.72412C5.1918 1.65476 5.34484 1.61865 5.5 1.61865C5.65516 1.61865 5.8082 1.65476 5.947 1.72412L8.947 3.22412C9.11308 3.30711 9.25278 3.4347 9.35045 3.59259C9.44812 3.75049 9.4999 3.93246 9.5 4.11812V7.88212C9.50009 8.06795 9.44839 8.25013 9.35071 8.40822C9.25303 8.56631 9.11323 8.69405 8.947 8.77712L5.947 10.2771C5.8082 10.3465 5.65516 10.3826 5.5 10.3826C5.34484 10.3826 5.1918 10.3465 5.053 10.2771L2.053 8.77712C1.88677 8.69405 1.74697 8.56631 1.64929 8.40822C1.55161 8.25013 1.49991 8.06795 1.5 7.88212ZM2.54 4.30612C2.48845 4.42825 2.48751 4.56586 2.53739 4.68869C2.58727 4.81152 2.68389 4.90951 2.806 4.96112L5 5.88712V8.50012C5 8.63273 5.05268 8.7599 5.14645 8.85367C5.24021 8.94744 5.36739 9.00012 5.5 9.00012C5.63261 9.00012 5.75979 8.94744 5.85355 8.85367C5.94732 8.7599 6 8.63273 6 8.50012V5.88712L8.194 4.96112C8.3134 4.90772 8.40712 4.80966 8.45506 4.68796C8.503 4.56627 8.50135 4.43064 8.45046 4.31015C8.39957 4.18966 8.30349 4.09391 8.18283 4.04343C8.06217 3.99295 7.92653 3.99176 7.805 4.04012L5.5 5.01312L3.194 4.04012C3.07186 3.98856 2.93425 3.98762 2.81143 4.03751C2.6886 4.08739 2.59161 4.18401 2.54 4.30612ZM2.042 14.2501V9.89012L3.042 10.3901V14.2501C3.042 14.6651 3.378 15.0001 3.792 15.0001H4.051C4.16576 14.435 4.47236 13.9269 4.91887 13.5619C5.36538 13.197 5.92432 12.9976 6.501 12.9976C7.07768 12.9976 7.63662 13.197 8.08313 13.5619C8.52963 13.9269 8.83624 14.435 8.951 15.0001H10.051C10.1835 14.3505 10.5686 13.7801 11.1217 13.4144C11.6747 13.0487 12.3504 12.9177 13 13.0501V4.75012C13 4.55121 12.921 4.36044 12.7803 4.21979C12.6397 4.07914 12.4489 4.00012 12.25 4.00012H10.496C10.4749 3.64253 10.3582 3.29717 10.158 3.00012H12.249C13.216 3.00012 13.999 3.78412 13.999 4.75012V6.00012H14.881C15.1597 6.00013 15.4329 6.07779 15.67 6.2244C15.907 6.371 16.0985 6.58075 16.223 6.83012L17.841 10.0651C17.945 10.2741 18 10.5031 18 10.7361V14.5001C18 14.8979 17.842 15.2795 17.5607 15.5608C17.2794 15.8421 16.8978 16.0001 16.5 16.0001H14.95C14.8352 16.5653 14.5286 17.0734 14.0821 17.4383C13.6356 17.8033 13.0767 18.0026 12.5 18.0026C11.9233 18.0026 11.3644 17.8033 10.9179 17.4383C10.4714 17.0734 10.1648 16.5653 10.05 16.0001H8.95C8.83524 16.5653 8.52864 17.0734 8.08213 17.4383C7.63562 17.8033 7.07668 18.0026 6.5 18.0026C5.92332 18.0026 5.36438 17.8033 4.91787 17.4383C4.47136 17.0734 4.16476 16.5653 4.05 16.0001H3.791C3.32687 16.0001 2.88175 15.8157 2.55356 15.4876C2.22537 15.1594 2.041 14.7142 2.041 14.2501H2.042ZM14.95 15.0001H16.5C16.6326 15.0001 16.7598 14.9474 16.8536 14.8537C16.9473 14.7599 17 14.6327 17 14.5001V11.0001H14V13.5001C14.48 13.8601 14.827 14.3901 14.95 15.0001ZM16.692 10.0001L15.33 7.27712C15.2886 7.19398 15.2248 7.12403 15.1459 7.07511C15.0669 7.02618 14.9759 7.00021 14.883 7.00012H14V10.0001H16.69H16.692ZM5 15.5001C5 15.8979 5.15804 16.2795 5.43934 16.5608C5.72064 16.8421 6.10218 17.0001 6.5 17.0001C6.89782 17.0001 7.27936 16.8421 7.56066 16.5608C7.84196 16.2795 8 15.8979 8 15.5001C8 15.1023 7.84196 14.7208 7.56066 14.4395C7.27936 14.1582 6.89782 14.0001 6.5 14.0001C6.10218 14.0001 5.72064 14.1582 5.43934 14.4395C5.15804 14.7208 5 15.1023 5 15.5001ZM12.5 17.0001C12.8978 17.0001 13.2794 16.8421 13.5607 16.5608C13.842 16.2795 14 15.8979 14 15.5001C14 15.1023 13.842 14.7208 13.5607 14.4395C13.2794 14.1582 12.8978 14.0001 12.5 14.0001C12.1022 14.0001 11.7206 14.1582 11.4393 14.4395C11.158 14.7208 11 15.1023 11 15.5001C11 15.8979 11.158 16.2795 11.4393 16.5608C11.7206 16.8421 12.1022 17.0001 12.5 17.0001Z" fill="black"/>
</g>
</svg>
