<svg width="16" height="16" viewBox="0 0 16 16" fill="none" xmlns="http://www.w3.org/2000/svg">
<g id="start icon">
<path id="shape" fill-rule="evenodd" clip-rule="evenodd" d="M1.3335 7.99967C1.3335 4.31778 4.31826 1.33301 8.00016 1.33301C9.76827 1.33301 11.464 2.03539 12.7142 3.28563C13.9645 4.53587 14.6668 6.23156 14.6668 7.99967C14.6668 11.6816 11.6821 14.6663 8.00016 14.6663C4.31826 14.6663 1.3335 11.6816 1.3335 7.99967ZM8.00016 8.66634H10.6668C11.035 8.66634 11.3335 8.36786 11.3335 7.99967C11.3335 7.63148 11.035 7.33301 10.6668 7.33301H8.66683V5.33301C8.66683 4.96482 8.36835 4.66634 8.00016 4.66634C7.63197 4.66634 7.3335 4.96482 7.3335 5.33301V7.99967C7.3335 8.36786 7.63197 8.66634 8.00016 8.66634Z" fill="#FFD666"/>
</g>
</svg>
