<svg width="24" height="25" viewBox="0 0 24 25" fill="none" xmlns="http://www.w3.org/2000/svg">
<g id="icons/ic_alert">
<path id="shape" fill-rule="evenodd" clip-rule="evenodd" d="M22.56 16.7999L14.89 4.07994C14.2597 3.09394 13.1702 2.49731 12 2.49731C10.8298 2.49731 9.74029 3.09394 9.11001 4.07994L1.44001 16.7999C0.888555 17.7192 0.869494 18.8628 1.39001 19.7999C1.99198 20.8551 3.11524 21.5046 4.33001 21.4999H19.67C20.8765 21.5128 21.9978 20.8797 22.61 19.8399C23.1461 18.8926 23.127 17.7292 22.56 16.7999ZM12 17.4999C11.4477 17.4999 11 17.0522 11 16.4999C11 15.9477 11.4477 15.4999 12 15.4999C12.5523 15.4999 13 15.9477 13 16.4999C13 17.0522 12.5523 17.4999 12 17.4999ZM12 14.4999C12.5523 14.4999 13 14.0522 13 13.4999V9.49994C13 8.94765 12.5523 8.49994 12 8.49994C11.4477 8.49994 11 8.94765 11 9.49994V13.4999C11 14.0522 11.4477 14.4999 12 14.4999Z" fill="#7A4100"/>
</g>
</svg>
